# xmcd
#
# Track frame offsets: 
#        150
#        13057
#        26197
#        37267
#        49665
#        65272
#        81220
#        93845
#        116352
#        127155
#
# Disc length: 1908 seconds
#
# Revision: 4
# Processed by: cddbd v1.5.1PL0 Copyright (c) Steve Scherf et al.
# Submitted via: ExactAudioCopy v0.95a5
#
DISCID=8307720a
DTITLE=Various Artist - Jazz Collection- Blues Men- CD2- All Them Blu
DTITLE=es- It Serves Me Right To Suffer (Disk 2 of 2)
DYEAR=2002
DGENRE=Blues
TTITLE0=Muddy Waters - So Glad I'm Livin'
TTITLE1=Lightnin' Hopkins - Baby Please Don't Go
TTITLE2=Arthur "Big Boy" Crudup - Rock Me Mama
TTITLE3=Jimmy Reed - Bright Lights, Big City
TTITLE4=Howlin' Wolf - Do the Do
TTITLE5=John Lee Hooker - It Serves Me Right To Suffer
TTITLE6=Elmore James - The Sky Is Crying
TTITLE7=Memphis Slim - Lend Me Your Love
TTITLE8=Muddy Waters - It Feels So Good
TTITLE9=Big Bill Broozy - Somebody's Got To Go
EXTD=LABEL =Delta Entertainment Corporation\nID =76010 (Disk # 1 =1
EXTD=7242 - Disk # 2 =17241]\nUPC =018111-761024\nCOPYRIGHT =2002 (D
EXTD=isk #1 =2001 - Disk # 2 =2001]\n*****\nID3G: 0
EXTT0=
EXTT1=
EXTT2=
EXTT3=
EXTT4=
EXTT5=
EXTT6=
EXTT7=
EXTT8=
EXTT9=
PLAYORDER=
